<?xml version="1.0" encoding="UTF-8" standalone="no"?>
<!-- Created with Inkscape (http://www.inkscape.org/) -->

<svg
   version="1.1"
   id="svg1"
   width="38"
   height="38"
   viewBox="0 0 38 38"
   sodipodi:docname="cake.svg"
   inkscape:version="1.3 (0e150ed6c4, 2023-07-21)"
   xmlns:inkscape="http://www.inkscape.org/namespaces/inkscape"
   xmlns:sodipodi="http://sodipodi.sourceforge.net/DTD/sodipodi-0.dtd"
   xmlns="http://www.w3.org/2000/svg"
   xmlns:svg="http://www.w3.org/2000/svg">
  <g
     id="g4"
     transform="matrix(0.4590526,0,0,0.4590526,-2.953457,-3.7102699)">
    <path
       style="fill:none;stroke:#ffffff;stroke-width:3.77953;stroke-linecap:round;stroke-linejoin:round;stroke-miterlimit:1.5;stroke-dasharray:none;stroke-opacity:1;paint-order:stroke fill markers"
       d="M 36.709434,27.290566 26.98868,24.211321 C 14.804001,29.711198 10.895479,36.842867 9.9018868,44.377358 l 0.060377,34.958491 c 0.030965,2.330374 1.4394962,3.907002 4.5283022,4.467925 l 65.449057,-0.120755 c 3.092137,0.175784 5.587739,-0.642657 6.279245,-4.467925 v -8.694339 l -65.449057,-0.24151"
       id="path1"
       sodipodi:nodetypes="ccccccccc" />
    <path
       style="fill:none;stroke:#ffffff;stroke-width:3.77953;stroke-linecap:round;stroke-linejoin:round;stroke-miterlimit:1.5;stroke-dasharray:none;stroke-opacity:1;paint-order:stroke fill markers"
       d="m 20.77,55.909434 65.449,0.120755 v 5.554717"
       id="path2"
       sodipodi:nodetypes="ccc" />
    <path
       style="fill:none;stroke:#ffffff;stroke-width:3.77953;stroke-linecap:round;stroke-linejoin:round;stroke-miterlimit:1.5;stroke-dasharray:none;stroke-opacity:1;paint-order:stroke fill markers"
       d="m 20.769765,41.889765 65.449,0.120755 v 5.554717"
       id="path2-4"
       sodipodi:nodetypes="ccc" />
    <path
       style="fill:none;stroke:#ffffff;stroke-width:3.77953;stroke-linecap:round;stroke-linejoin:round;stroke-miterlimit:1.5;stroke-dasharray:none;stroke-opacity:1;paint-order:stroke fill markers"
       d="M 85.898798,42.095534 55.842757,32.361476 c 6.981417,-5.344646 -2.02479,-17.592828 -10.02344,-9.967355 -6.160801,7.47366 3.354271,15.096285 10.044787,10.010048"
       id="path3"
       sodipodi:nodetypes="cccc" />
    <path
       style="fill:none;stroke:#ffffff;stroke-width:3.77953;stroke-linecap:round;stroke-linejoin:round;stroke-miterlimit:1.5;stroke-dasharray:none;stroke-opacity:1;paint-order:stroke fill markers"
       d="m 54.092335,19.63889 c 2.033026,-3.928228 4.700887,-5.660103 9.691365,-5.720894"
       id="path4"
       sodipodi:nodetypes="cc" />
  </g>
</svg>
